# xmcd CD database file
#
# Track frame offsets:
#	150
#	23335
#	35520
#	58035
#	71922
#	95412
#	112512
#	133812
#	149992
#	171560
#	193560
#	208825
#
# Disc length: 2966 seconds
#
# Revision: 0
# Processed by: cddbd v1.5PL3 Copyright (c) Steve Scherf et al.
# Submitted via: CDex 1.50
#
DISCID=b50b940c
DTITLE=Placebo - Placebo
DYEAR=1996
DGENRE=Rock
TTITLE0=Come Home
TTITLE1=Teenage Angst
TTITLE2=Bionic
TTITLE3=36 Degrees
TTITLE4=Hang On To Your IQ
TTITLE5=Nancy Boy
TTITLE6=I Know
TTITLE7=Bruise Pristine
TTITLE8=Lady Of The Flowers
TTITLE9=Swallow
TTITLE10=Slacker Bitch
TTITLE11=Hug Bubble
EXTD=YEAR: 1996
EXTT0=
EXTT1=
EXTT2=
EXTT3=
EXTT4=
EXTT5=
EXTT6=
EXTT7=
EXTT8=
EXTT9=
EXTT10=
EXTT11=
PLAYORDER=
